<?xml version="1.0" encoding="UTF-8"?>
<svg width="28px" height="30px" viewBox="0 0 28 30" version="1.1" xmlns="http://www.w3.org/2000/svg" xmlns:xlink="http://www.w3.org/1999/xlink">
    <title>闹钟</title>
    <defs>
        <polygon id="path-1" points="1.99357146e-06 0 28.000002 0 28.000002 30 1.99357146e-06 30"></polygon>
    </defs>
    <g id="入墙式插座2.0" stroke="none" stroke-width="1" fill="none" fill-rule="evenodd">
        <g id="日耗电详情备份" transform="translate(-270.000000, -1263.000000)">
            <g id="编组-7" transform="translate(0.000000, 1222.000000)">
                <g id="闹钟" transform="translate(270.000000, 41.000000)">
                    <mask id="mask-2" fill="white">
                        <use xlink:href="#path-1"></use>
                    </mask>
                    <g id="Clip-2"></g>
                    <path d="M13.9820878,3.23100651 C21.1891567,3.23100651 27.0316899,9.07353967 27.0316899,16.2807542 C27.0316899,20.9516203 24.5759552,25.0468297 20.8866548,27.352515 L20.8866548,27.352515 L19.5206626,28.097264 C17.8390969,28.886762 15.9627692,29.3303927 13.9825248,29.3303927 C12.0022439,29.3303927 10.12537,28.886762 8.4443505,28.097264 L8.4443505,28.097264 L7.07737521,27.352515 C3.38807482,25.0468297 0.932303684,20.9516203 0.932303684,16.2807542 C0.932303684,9.07353967 6.77483684,3.23100651 13.9820878,3.23100651 Z M13.4288028,9.08289828 C12.8691088,9.08243717 12.4157744,9.5304076 12.4152996,10.0841306 L12.4152996,10.0841306 L12.4157744,17.4499487 C12.4157744,17.6948662 12.5085226,17.9162125 12.656429,18.0904563 C12.8397491,18.3099376 13.1091303,18.4516025 13.4145582,18.4516025 L13.4145582,18.4516025 L20.746816,18.4516025 C21.2989129,18.4516025 21.7456039,17.9969655 21.7456039,17.4358616 C21.7467077,16.873964 21.2989129,16.4199222 20.7463807,16.4199222 L20.7463807,16.4199222 L14.4416334,16.4199222 L14.4422665,10.0841306 C14.4422665,9.53088378 13.9878242,9.08289828 13.4288028,9.08289828 Z M1.47479003,2.47704552 C3.44352865,0.507869966 6.63545583,0.507433034 8.60463138,2.47704552 C8.62229068,2.49426788 8.6363453,2.51247335 8.65400459,2.53053316 C5.53930498,4.0033186 2.97688626,6.45067881 1.35831149,9.47959428 C-0.488705419,7.50248115 -0.454151452,4.40413004 1.47479003,2.47704552 Z M19.3593622,2.47704552 C21.3285378,0.507433034 24.5206106,0.507869966 26.48924,2.47704552 C28.418145,4.40369311 28.4527354,7.50204422 26.6057185,9.47959428 C24.9871437,6.45067881 22.424725,4.0033186 19.3100254,2.53053316 C19.3276483,2.51247335 19.3417393,2.49426788 19.3593622,2.47704552 Z" id="形状结合" fill="#7377C4" mask="url(#mask-2)"></path>
                </g>
            </g>
        </g>
    </g>
</svg>