<?xml version="1.0" encoding="UTF-8"?>
<svg width="72px" height="72px" viewBox="0 0 72 72" version="1.1" xmlns="http://www.w3.org/2000/svg" xmlns:xlink="http://www.w3.org/1999/xlink">
    <title>编组 5</title>
    <defs>
        <polygon id="path-1" points="0 0.00634589728 39.9485923 0.00634589728 39.9485923 42.496762 0 42.496762"></polygon>
        <linearGradient x1="50%" y1="0%" x2="50%" y2="100%" id="linearGradient-3">
            <stop stop-color="#EFEFEF" offset="0%"></stop>
            <stop stop-color="#FFFFFF" offset="100%"></stop>
        </linearGradient>
        <linearGradient x1="50%" y1="0%" x2="50%" y2="100%" id="linearGradient-4">
            <stop stop-color="#EFEFEF" offset="0%"></stop>
            <stop stop-color="#FFFFFF" offset="100%"></stop>
        </linearGradient>
    </defs>
    <g id="定稿" stroke="none" stroke-width="1" fill="none" fill-rule="evenodd">
        <g id="计时执行中" transform="translate(-558.000000, -1148.000000)">
            <g id="编组-5" transform="translate(558.000000, 1148.000000)">
                <circle id="椭圆形备份-2" fill="#D80200" cx="36" cy="36" r="36"></circle>
                <g id="naozhong备份" transform="translate(16.000000, 17.000000)">
                    <mask id="mask-2" fill="white">
                        <use xlink:href="#path-1"></use>
                    </mask>
                    <g id="Clip-2"></g>
                    <path d="M12.3628609,2.19282185 C12.3376333,2.16702211 12.3175553,2.1410143 12.2923277,2.11641092 C9.47921977,-0.697321196 4.9193238,-0.696697009 2.10684005,2.11641092 C-0.648790637,4.86938882 -0.698153446,9.29560468 1.94044213,12.120052 C4.25269181,7.79302991 7.91328999,4.29680104 12.3628609,2.19282185 Z M38.0081664,12.120052 C40.646762,9.29498049 40.5973472,4.86876463 37.8417685,2.11641092 C35.0294408,-0.696697009 30.4693368,-0.697321196 27.6562289,2.11641092 C27.6310533,2.1410143 27.6109233,2.16702211 27.5857477,2.19282185 C32.0353186,4.29680104 35.6959168,7.79302991 38.0081664,12.120052 Z" id="Fill-1" fill="url(#linearGradient-3)" mask="url(#mask-2)"></path>
                    <path d="M29.8380754,37.6527958 C35.1085046,34.3589597 38.616697,28.5086606 38.616697,21.8359948 C38.616697,11.539974 30.2702211,3.19349805 19.9744083,3.19349805 C9.6783355,3.19349805 1.33185956,11.539974 1.33185956,21.8359948 C1.33185956,28.5086606 4.84010403,34.3589597 10.1105332,37.6527958 L12.063355,38.716723 C14.4648114,39.8445774 17.1460598,40.4783355 19.9750325,40.4783355 C22.8039532,40.4783355 25.4844213,39.8445774 27.886658,38.716723 L29.8380754,37.6527958 Z M19.1636517,24.9372066 C18.7273261,24.9372066 18.3424958,24.7348282 18.08061,24.4212835 C17.8693151,24.1723638 17.7368177,23.8561547 17.7368177,23.5062726 L17.7368177,23.4932342 C17.7361394,23.483257 17.7368177,23.4817264 17.7368177,23.4788353 L17.7361394,12.9836754 C17.7368177,12.1926425 18.3844383,11.5526847 19.1840012,11.5533434 C19.9826031,11.5533434 20.6318064,12.1933227 20.6318064,12.9836754 L20.630902,22.0348063 L29.6376839,22.0348063 C30.4270156,22.0348063 31.0667225,22.6834374 31.0651456,23.4861481 C31.0651456,24.2877251 30.4270156,24.9372066 29.6383057,24.9372066 L19.1636517,24.9372066 Z" id="Fill-3" fill="url(#linearGradient-4)" mask="url(#mask-2)"></path>
                </g>
            </g>
        </g>
    </g>
</svg>