<?xml version="1.0" encoding="UTF-8"?>
<svg width="134px" height="113px" viewBox="0 0 134 113" version="1.1" xmlns="http://www.w3.org/2000/svg" xmlns:xlink="http://www.w3.org/1999/xlink">
    <title>二氧化碳</title>
    <defs>
        <filter x="-40.5%" y="-166.7%" width="181.1%" height="433.3%" filterUnits="objectBoundingBox" id="filter-1">
            <feGaussianBlur stdDeviation="10" in="SourceGraphic"></feGaussianBlur>
        </filter>
    </defs>
    <g id="页面-1" stroke="none" stroke-width="1" fill="none" fill-rule="evenodd">
        <g id="画板备份" transform="translate(-342.000000, -536.000000)">
            <g id="编组-24" transform="translate(342.000000, 536.000000)">
                <g id="编组-21" transform="translate(28.000000, 0.000000)">
                    <g id="编组-16备份-2">
                        <ellipse id="椭圆形备份-2" fill-opacity="0.1" fill="#D80200" filter="url(#filter-1)" cx="39" cy="74" rx="37" ry="9"></ellipse>
                        <rect id="矩形备份-2" fill="#FFFFFF" x="0" y="0" width="76" height="76" rx="12.16"></rect>
                    </g>
                    <g id="编组" transform="translate(16.000000, 25.000000)" fill="#979797" fill-rule="nonzero" stroke="#FFFFFF" stroke-width="0.6">
                        <path d="M25.1173019,0.320591631 C28.007857,0.320591631 29.9680412,1.05824586 30.9389746,2.61057319 C31.8876223,4.11818221 32.3685477,6.46850857 32.408574,9.65214295 L32.4113018,10.0914392 L32.4113018,14.7691713 C32.4113018,18.1220962 31.8924333,20.5234129 30.814743,21.9557973 C29.7667423,23.3543695 27.8738438,24.0229401 25.1774928,24.0229401 C22.5599225,24.0229401 20.66703,23.3766792 19.5290861,22.0331857 C18.4200413,20.7238114 17.8665596,18.417393 17.8256247,15.136453 L17.82317,14.7380639 L17.82317,10.0896352 C17.82317,6.35241802 18.3708454,3.76894372 19.5170091,2.36657868 C20.6445792,0.986963541 22.5208199,0.320591631 25.1173019,0.320591631 Z M25.1172139,3.2434765 C23.9689623,3.2434765 23.1124063,3.69891368 22.5397832,4.5970021 C22.0004747,5.44284058 21.7181734,6.70855342 21.7181734,8.4039374 L21.7181734,8.4039374 L21.7181734,15.9688538 L21.721838,16.2999191 C21.7560062,17.8183862 22.0286327,18.9659736 22.5195687,19.7502066 C23.0798562,20.6452232 23.9182824,21.0981633 25.0413593,21.0981633 C26.2129701,21.0981633 27.0856342,20.6604919 27.6700193,19.8048493 C28.2248533,18.9924748 28.5162544,17.7776473 28.5162544,16.1495586 L28.5162544,16.1495586 L28.5162544,8.72275569 L28.5125251,8.36924162 C28.4777514,6.74776195 28.2002422,5.52165581 27.699056,4.68404706 C27.1254363,3.72538368 26.2659072,3.2434765 25.1172139,3.2434765 Z M7.28525745,0.318787663 C9.54012372,0.318787663 11.1828634,0.901337178 12.189325,2.11014165 C13.1684186,3.28612508 13.6590333,5.08668304 13.6962336,7.49551631 L13.6962336,7.49551631 L10.0132242,7.49551631 C9.99286235,6.15583097 9.83412335,5.14906493 9.5506388,4.47516781 C9.37742953,4.06341617 9.12330472,3.75743857 8.79540996,3.55168475 C8.47386209,3.34991361 8.07770409,3.2435205 7.60403174,3.2435205 C6.46063597,3.2435205 5.60780622,3.69891518 5.037792,4.59742776 C4.50127674,5.44313596 4.22056699,6.70874998 4.22056699,8.4039814 L4.22056699,8.4039814 L4.22056699,15.9688098 C4.22056699,17.7977719 4.51415101,19.0908091 5.06714055,19.8662588 C5.6598183,20.6822355 6.51156122,21.0981633 7.63315921,21.0981633 C8.0844263,21.0981633 8.47504608,20.981024 8.80688263,20.7527131 C9.12976881,20.5305603 9.39889886,20.2002262 9.60652977,19.7538012 C9.96403232,18.981773 10.1616811,17.6903083 10.1810446,15.872166 L10.1810446,15.872166 L13.9394649,15.8722798 C13.9046828,18.3740552 13.4308686,20.3590448 12.4993261,21.8211115 C11.5549693,23.3032904 9.92415563,24.0211362 7.63324721,24.0211362 C4.90523277,24.0211362 2.98720412,23.3424951 1.92112264,21.9241709 C0.843533069,20.4710993 0.323671576,18.0714367 0.323671576,14.7363479 L0.323671576,14.7363479 L0.323671576,9.79998838 C0.323671576,6.22271418 0.862430842,3.73276762 1.98830848,2.34918274 C3.10395257,0.983964503 4.87722279,0.318787663 7.28525745,0.318787663 Z M39.3915261,9.56728993 C40.6532558,9.56728993 41.6047458,9.88663652 42.2290077,10.5651788 C42.853898,11.2312761 43.1627291,12.0601663 43.1627291,13.0467782 C43.1627291,14.4155566 42.5848323,15.6750904 41.4420884,16.8362058 L41.4420884,16.8362058 L39.3657895,18.9979748 C38.1957323,20.192017 37.7350097,21.2028898 37.8839865,22.0042831 L37.8839865,22.0042831 L42.9545689,22.0042831 L42.9545689,23.5409728 L35.5723943,23.5409728 C35.6217573,22.3478662 35.7670887,21.3839023 36.0116915,20.645072 C36.2752835,19.8433501 37.0430897,18.7858786 38.2984909,17.4645917 L38.2984909,17.4645917 L39.577095,16.1200461 C40.1483043,15.5345242 40.5263362,15.0590785 40.7181099,14.6976366 C40.9275787,14.3151663 41.038782,13.7847999 41.038782,13.1012052 C41.038782,12.4481651 40.8975947,11.9664503 40.6458795,11.6424413 C40.3733287,11.2916127 39.9696696,11.1019557 39.4186736,11.1019557 C39.0516142,11.1019557 38.7506946,11.164521 38.5137066,11.2794022 C38.245742,11.4092994 38.0522782,11.605057 37.9307594,11.8662225 C37.7610334,12.2374164 37.657824,12.8888451 37.6399922,13.8276628 L37.6399922,13.8276628 L35.6845179,13.8276628 C35.6845179,12.2113371 35.9799752,11.2064623 36.6049484,10.5402588 C37.2241657,9.88019093 38.1588738,9.56728993 39.3915261,9.56728993 Z" id="形状"></path>
                    </g>
                </g>
            </g>
        </g>
    </g>
</svg>