<?xml version="1.0" encoding="UTF-8"?>
<svg width="25.69px" height="25.69px" viewBox="0 0 25.69 25.69" version="1.1" xmlns="http://www.w3.org/2000/svg" xmlns:xlink="http://www.w3.org/1999/xlink">
    <g id="loading"  fill="#565656" fill-rule="nonzero" >
        <path d="M12.9610206,6.41411234 C12.4090303,6.41411234 11.9615537,5.96663574 11.9615537,5.41464538 L11.9615537,1.16731061 C11.9615537,0.61532025 12.4090303,0.167843649 12.9610206,0.167843649 C13.513011,0.167843649 13.9604876,0.61532025 13.9604876,1.16731061 L13.9604876,5.41464538 C13.9604876,5.9679503 13.5127264,6.41411234 12.9610206,6.41411234 L12.9610206,6.41411234 Z" id="路径"></path>
        <path d="M9.68756648,7.29204411 C9.21012242,7.56741198 8.59987392,7.40429749 8.32349401,6.92743857 L6.1998266,3.24940016 C5.95407442,2.77520495 6.12456646,2.19158838 6.58694061,1.92425829 C7.04931476,1.65692819 7.64016395,1.80036136 7.92850465,2.24993324 L10.052172,5.92797161 C10.1848553,6.15717492 10.2209818,6.42972223 10.1525937,6.68557781 C10.0842055,6.94143339 9.91691295,7.15960843 9.68756648,7.29204411 L9.68756648,7.29204411 Z" id="路径" opacity="0.9"></path>
        <path d="M7.29204411,9.68756648 C7.15960843,9.91691295 6.94143339,10.0842055 6.68557781,10.1525937 C6.42972223,10.2209818 6.15717492,10.1848553 5.92797161,10.052172 L2.24993324,7.92850465 C1.77257198,7.65250948 1.60933251,7.04179343 1.88532768,6.56443217 C2.16132285,6.0870709 2.7720389,5.92383143 3.24940016,6.1998266 L6.92743857,8.32349401 C7.40398442,8.59854732 7.56709743,9.21102066 7.29204411,9.68756648 L7.29204411,9.68756648 Z" id="路径" opacity="0.85"></path>
        <path d="M6.41411234,12.9610206 C6.41411234,13.5127264 5.96635114,13.9604876 5.41464538,13.9604876 L1.16731061,13.9604876 C0.61532025,13.9604876 0.167843649,13.513011 0.167843649,12.9610206 C0.167843649,12.4090303 0.61532025,11.9615537 1.16731061,11.9615537 L5.41464538,11.9615537 C5.9679503,11.9615537 6.41411234,12.4093149 6.41411234,12.9610206 L6.41411234,12.9610206 Z" id="路径" opacity="0.8"></path>
        <path d="M7.29204411,16.2344748 C7.56741198,16.7119189 7.40429749,17.3221674 6.92743857,17.5985473 L3.24940016,19.7222147 C2.77520495,19.9679669 2.19158838,19.7974748 1.92425829,19.3351007 C1.65692819,18.8727265 1.80036136,18.2818773 2.24993324,17.9935366 L5.92797161,15.8698693 C6.15717492,15.737186 6.42972223,15.7010595 6.68557781,15.7694476 C6.94143339,15.8378357 7.15960843,16.0051283 7.29204411,16.2344748 L7.29204411,16.2344748 Z" id="路径" opacity="0.75"></path>
        <path d="M9.68756648,18.6299972 C9.91691295,18.7624329 10.0842055,18.9806079 10.1525937,19.2364635 C10.2209818,19.4923191 10.1848553,19.7648664 10.052172,19.9940697 L7.92850465,23.6721081 C7.74996708,23.9809066 7.42024948,24.1709997 7.06355327,24.1707813 C6.70685706,24.1705621 6.37737288,23.9800648 6.19921424,23.6710474 C6.0210556,23.36203 6.02128903,22.9814397 6.1998266,22.6726411 L8.32349401,18.9946027 C8.59987392,18.5177438 9.21012242,18.3546293 9.68756648,18.6299972 L9.68756648,18.6299972 Z" id="路径" opacity="0.7"></path>
        <path d="M12.9610206,19.5079289 C13.5127264,19.5079289 13.9604876,19.9556902 13.9604876,20.5073959 L13.9604876,24.7547307 C13.9604876,25.306721 13.513011,25.7541976 12.9610206,25.7541976 C12.4090303,25.7541976 11.9615537,25.306721 11.9615537,24.7547307 L11.9615537,20.5073959 C11.9615537,19.954091 12.4093149,19.5079289 12.9610206,19.5079289 Z" id="路径" opacity="0.65"></path>
        <path d="M16.2344748,18.6299972 C16.7119189,18.3546293 17.3221674,18.5177438 17.5985473,18.9946027 L19.7222147,22.6726411 C19.9679669,23.1468363 19.7974748,23.7304529 19.3351007,23.997783 C18.8727265,24.2651131 18.2818773,24.1216799 17.9935366,23.6721081 L15.8698693,19.9940697 C15.737186,19.7648664 15.7010595,19.4923191 15.7694476,19.2364635 C15.8378357,18.9806079 16.0051283,18.7624329 16.2344748,18.6299972 L16.2344748,18.6299972 Z" id="路径" opacity="0.6"></path>
        <path d="M18.6299972,16.2344748 C18.7624329,16.0051283 18.9806079,15.8378357 19.2364635,15.7694476 C19.4923191,15.7010595 19.7648664,15.737186 19.9940697,15.8698693 L23.6721081,17.9935366 C23.9809066,18.1720742 24.1709997,18.5017918 24.1707813,18.858488 C24.1705621,19.2151842 23.9800648,19.5446684 23.6710474,19.722827 C23.36203,19.9009857 22.9814397,19.9007523 22.6726411,19.7222147 L18.9946027,17.5985473 C18.5177438,17.3221674 18.3546293,16.7119189 18.6299972,16.2344748 L18.6299972,16.2344748 Z" id="路径" opacity="0.55"></path>
        <path d="M19.5079289,12.9610206 C19.5079289,12.4093149 19.9556902,11.9615537 20.5073959,11.9615537 L24.7547307,11.9615537 C25.306721,11.9615537 25.7541976,12.4090303 25.7541976,12.9610206 C25.7541976,13.513011 25.306721,13.9604876 24.7547307,13.9604876 L20.5073959,13.9604876 C19.9554056,13.9604876 19.5079289,13.513011 19.5079289,12.9610206 L19.5079289,12.9610206 Z" id="路径" opacity="0.5"></path>
        <path d="M18.6299972,9.68756648 C18.3546293,9.21012242 18.5177438,8.59987392 18.9946027,8.32349401 L22.6726411,6.1998266 C23.1468363,5.95407442 23.7304529,6.12456646 23.997783,6.58694061 C24.2651131,7.04931476 24.1216799,7.64016395 23.6721081,7.92850465 L19.9940697,10.052172 C19.7648664,10.1848553 19.4923191,10.2209818 19.2364635,10.1525937 C18.9806079,10.0842055 18.7624329,9.91691295 18.6299972,9.68756648 L18.6299972,9.68756648 Z" id="路径" opacity="0.4"></path>
        <path d="M16.2344748,7.29204411 C16.0051283,7.15960843 15.8378357,6.94143339 15.7694476,6.68557781 C15.7010595,6.42972223 15.737186,6.15717492 15.8698693,5.92797161 L17.9935366,2.24993324 C18.1720742,1.94113463 18.5017918,1.75104161 18.858488,1.75126 C19.2151843,1.75147915 19.5446684,1.94197648 19.7228271,2.25099386 C19.9009857,2.56001123 19.9007523,2.94060157 19.7222147,3.24940016 L17.5985473,6.92743857 C17.3221674,7.40429749 16.7119189,7.56741198 16.2344748,7.29204411 L16.2344748,7.29204411 Z" id="路径" opacity="0.3"></path>
        <animateTransform
        attributeName="transform"
        begin="0s"
        dur="1s"
        type="rotate"
        
        from="0 12.795 12.795"
        to="360 12.795 12.795"
        repeatCount="indefinite"
    />
    </g>
</svg>