<?xml version="1.0" encoding="UTF-8"?>
<svg width="750px" height="307px" viewBox="0 0 750 307" version="1.1" xmlns="http://www.w3.org/2000/svg" xmlns:xlink="http://www.w3.org/1999/xlink">
    <title>背景</title>
    <defs>
        <filter x="-46.9%" y="-83.3%" width="193.8%" height="266.7%" filterUnits="objectBoundingBox" id="filter-1">
            <feGaussianBlur stdDeviation="50" in="SourceGraphic"></feGaussianBlur>
        </filter>
        <filter x="-45.6%" y="-131.6%" width="191.2%" height="363.2%" filterUnits="objectBoundingBox" id="filter-2">
            <feGaussianBlur stdDeviation="50" in="SourceGraphic"></feGaussianBlur>
        </filter>
        <filter x="-45.6%" y="-131.6%" width="191.2%" height="363.2%" filterUnits="objectBoundingBox" id="filter-3">
            <feGaussianBlur stdDeviation="50" in="SourceGraphic"></feGaussianBlur>
        </filter>
        <linearGradient x1="0%" y1="100%" x2="100%" y2="100%" id="linearGradient-4">
            <stop stop-color="#0080FF" stop-opacity="0" offset="0%"></stop>
            <stop stop-color="#6774F1" offset="25.7366376%"></stop>
            <stop stop-color="#F9969B" offset="49.5972619%"></stop>
            <stop stop-color="#6776F5" offset="74.2016007%"></stop>
            <stop stop-color="#0080FF" stop-opacity="0" offset="100%"></stop>
        </linearGradient>
    </defs>
    <g id="设备控制页" stroke="none" stroke-width="1" fill="none" fill-rule="evenodd">
        <g id="画板备份-3" transform="translate(-486.000000, -702.000000)">
            <g id="编组" transform="translate(486.000000, 702.000000)">
                <ellipse id="椭圆形" fill="#F2999C" opacity="0.25" filter="url(#filter-1)" cx="375" cy="240" rx="160" ry="90"></ellipse>
                <ellipse id="椭圆形备份" fill="#6978F5" opacity="0.200000003" filter="url(#filter-2)" cx="585.5" cy="250" rx="164.5" ry="57"></ellipse>
                <ellipse id="椭圆形备份-2" fill="#6978F5" opacity="0.200000003" filter="url(#filter-3)" cx="164.5" cy="250" rx="164.5" ry="57"></ellipse>
                <path d="M750,193.556332 L750,348.556332 L479.198857,348.556332 C456.417969,348.556332 434.319893,356.334602 416.561641,370.603916 L409.5,376.278166 C389.349607,392.46964 360.650393,392.46964 340.5,376.278166 L333.438359,370.603916 C315.680107,356.334602 293.582031,348.556332 270.801143,348.556332 L0,348.556332 L0,348.556332 L5.84615385,193.556332" id="路径" stroke="url(#linearGradient-4)" stroke-width="5" fill="#FBFBFC" transform="translate(375.000000, 298.778166) scale(1, -1) translate(-375.000000, -298.778166) "></path>
            </g>
        </g>
    </g>
</svg>