<?xml version="1.0" encoding="UTF-8"?>
<svg width="134px" height="113px" viewBox="0 0 134 113" version="1.1" xmlns="http://www.w3.org/2000/svg" xmlns:xlink="http://www.w3.org/1999/xlink">
    <title>PM2.5</title>
    <defs>
        <filter x="-40.5%" y="-166.7%" width="181.1%" height="433.3%" filterUnits="objectBoundingBox" id="filter-1">
            <feGaussianBlur stdDeviation="10" in="SourceGraphic"></feGaussianBlur>
        </filter>
    </defs>
    <g id="页面-1" stroke="none" stroke-width="1" fill="none" fill-rule="evenodd">
        <g id="画板备份" transform="translate(-55.000000, -536.000000)">
            <g id="编组-22" transform="translate(55.000000, 536.000000)">
                <g id="编组-20" transform="translate(28.000000, 0.000000)">
                    <g id="编组-16">
                        <ellipse id="椭圆形备份-2" fill-opacity="0.1" fill="#D80200" filter="url(#filter-1)" cx="39" cy="74" rx="37" ry="9"></ellipse>
                        <rect id="矩形备份-2" fill="#FFFFFF" x="0" y="0" width="76" height="76" rx="16"></rect>
                    </g>
                    <g id="编组备份-21" transform="translate(21.000000, 28.000000)" fill-rule="nonzero" stroke="#979797" stroke-width="3">
                        <path d="M0,12 C0,16.9705627 4.02943725,21 9,21 C13.9705627,21 18,16.9705627 18,12 C18,7.02943725 13.9705627,3 9,3 C4.02943725,3 0,7.02943725 0,12 Z" id="路径"></path>
                        <path d="M21,5 C21,7.76142375 23.2385763,10 26,10 C28.7614237,10 31,7.76142375 31,5 C31,2.23857625 28.7614237,0 26,0 C23.2385763,0 21,2.23857625 21,5 Z" id="路径"></path>
                        <path d="M20,22.5 C20,26.0898509 22.9101491,29 26.5,29 C30.0898509,29 33,26.0898509 33,22.5 C33,18.9101491 30.0898509,16 26.5,16 C22.9101491,16 20,18.9101491 20,22.5 Z" id="路径"></path>
                    </g>
                </g>
            </g>
        </g>
    </g>
</svg>