<?xml version="1.0" encoding="UTF-8"?>
<svg width="46px" height="46px" viewBox="0 0 46 46" version="1.1" xmlns="http://www.w3.org/2000/svg" xmlns:xlink="http://www.w3.org/1999/xlink">
    <title>√</title>
    <g id="页面-1" stroke="none" stroke-width="1" fill="none" fill-rule="evenodd">
        <g id="马达震感" transform="translate(-664.000000, -711.000000)">
            <g id="编组-2" transform="translate(0.000000, 670.000000)">
                <g id="编组-9" transform="translate(664.000000, 41.000000)">
                    <circle id="椭圆形" fill="#6165C5" cx="23" cy="23" r="23"></circle>
                    <path d="M20.9278094,31.4764893 C20.7053562,31.7854945 20.3805441,31.9743716 20.0310551,31.9984135 C20.0060572,32 19.9813402,32 19.9564225,32 C19.6331753,32 19.3211631,31.8584743 19.0863113,31.6017837 L12.387839,24.2745463 C11.8861959,23.7269531 11.8688217,22.8163724 12.3494795,22.2439644 C12.8300569,21.6705394 13.6262579,21.6517046 14.1281819,22.2000707 L19.8470016,28.4543736 L30.7708401,14.5246127 C31.2121753,13.9108738 32.0051662,13.8233305 32.5414773,14.327152 C33.0777885,14.8318686 33.1547081,15.7372829 32.7135736,16.3501675 L20.9277291,31.4764487 L20.9278094,31.4764893 Z" id="路径" fill="#FFFFFF" fill-rule="nonzero"></path>
                </g>
            </g>
        </g>
    </g>
</svg>