<?xml version="1.0" encoding="UTF-8"?>
<svg width="134px" height="113px" viewBox="0 0 134 113" version="1.1" xmlns="http://www.w3.org/2000/svg" xmlns:xlink="http://www.w3.org/1999/xlink">
    <title>温湿度</title>
    <defs>
        <filter x="-40.5%" y="-166.7%" width="181.1%" height="433.3%" filterUnits="objectBoundingBox" id="filter-1">
            <feGaussianBlur stdDeviation="10" in="SourceGraphic"></feGaussianBlur>
        </filter>
    </defs>
    <g id="页面-1" stroke="none" stroke-width="1" fill="none" fill-rule="evenodd">
        <g id="画板备份" transform="translate(-199.000000, -536.000000)">
            <g id="编组-29" transform="translate(199.000000, 536.000000)">
                <g id="编组-16备份" transform="translate(28.000000, 0.000000)">
                    <ellipse id="椭圆形备份-2" fill-opacity="0.1" fill="#D80200" filter="url(#filter-1)" cx="39" cy="74" rx="37" ry="9"></ellipse>
                    <rect id="矩形备份-2" fill="#FFFFFF" x="0" y="0" width="76" height="76" rx="12.16"></rect>
                    <g id="编组-6" transform="translate(19.000000, 17.000000)" fill="#979797" fill-rule="nonzero">
                        <g id="编组" transform="translate(10.000000, 20.500000) rotate(-360.000000) translate(-10.000000, -20.500000) ">
                            <path d="M9.96589543,-0.190584936 C11.3892626,-0.190584936 12.6799819,0.388324902 13.6148225,1.32320324 C14.4912185,2.19963465 15.054784,3.3888581 15.1218062,4.70696935 L15.1285357,4.97225561 L15.1285357,22.2380751 C16.5337077,23.0682317 17.7196386,24.2238497 18.5860445,25.6082788 C19.5952133,27.2205274 20.1286859,29.0825764 20.1286859,30.9933393 C20.1286859,33.7078715 19.0716738,36.259951 17.1519438,38.1794766 C15.2326607,40.098913 12.6803771,41.1561799 9.96584535,41.1561799 C7.25131471,41.1561799 4.69903296,40.0991163 2.77955032,38.1794804 C0.860065124,36.2599441 -0.196995192,33.7078676 -0.196995192,30.9933393 C-0.196995192,29.0825755 0.336528499,27.2204746 1.34568805,25.608292 C2.14544235,24.3303841 3.21740867,23.2474231 4.48273941,22.4353991 L4.80305489,22.2380816 L4.80305489,4.97225561 C4.80305489,3.54882471 5.38198493,2.25808652 6.31684386,1.32322759 C7.25173677,0.388334683 8.54251716,-0.190584936 9.96589543,-0.190584936 Z M9.96584535,1.84933894 C9.10486882,1.84933894 8.32418943,2.1996639 7.75872154,2.76513179 C7.19325365,3.33059968 6.84292869,4.11127908 6.84292869,4.97225561 L6.84292869,4.97225561 L6.84292869,23.4661681 L6.2859498,23.7499214 L5.99630986,23.9046741 C4.75867631,24.5977164 3.74989826,25.5798015 3.03658996,26.7427393 C2.26842104,27.9951188 1.84297877,29.4571455 1.84297877,30.9933393 C1.84297877,33.2328207 2.75402086,35.2635084 4.22486037,36.7343479 C5.69566762,38.2051551 7.72631541,39.1162059 9.96584535,39.1162059 C12.205296,39.1162059 14.2359579,38.2051264 15.7067922,36.7342921 C17.1776346,35.2634497 18.0887119,33.2327778 18.0887119,30.9933393 C18.0887119,29.4571796 17.6632386,27.9951719 16.8950775,26.7428051 C16.1268725,25.4903667 15.0160003,24.4476867 13.6457734,23.749938 L13.6457734,23.749938 L13.0885617,23.4661929 L13.0885617,4.97225561 L13.0813423,4.7587588 C13.0286865,3.98264365 12.6911551,3.28344914 12.1728375,2.76510032 C11.6074218,2.1996505 10.826804,1.84933894 9.96584535,1.84933894 Z" id="形状" stroke="#979797" stroke-width="0.4"></path>
                            <path d="M8.50180288,10.5008013 C8.50180288,9.69230769 9.15715144,9.03675881 9.96584535,9.03675881 C10.774389,9.03675881 11.4298878,9.69230769 11.4298878,10.5008013 L11.4298878,26.6630108 C13.1384716,27.2663261 14.3627304,28.8950821 14.3627304,30.8100962 C14.3627304,33.2383814 12.3941306,35.2069812 9.96584535,35.2069812 C7.53735978,35.2069812 5.56876002,33.2383814 5.56876002,30.8100962 C5.56876002,28.8950821 6.79316907,27.266276 8.50180288,26.6629607 L8.50180288,10.5008013 Z" id="形状"></path>
                        </g>
                        <g id="编组" transform="translate(22.000000, 22.000000)" stroke="#979797" stroke-width="0.2">
                            <path d="M7.00791096,-0.152856676 L8.14566475,1.16156012 L8.48974181,1.56427556 C8.59082234,1.68329243 8.69771881,1.81389044 8.81204557,1.95596177 C9.74824121,3.11524842 10.41362,3.9993632 11.045076,4.90679254 C11.542786,5.61262217 12.0117894,6.33826296 12.4511533,7.08230443 C13.7776282,9.35038404 14.1333975,10.299486 14.125936,12.1178662 C14.1171069,14.0327469 13.3074144,15.7670597 12.0173895,17.0249569 C10.720002,18.2900334 8.9368621,19.0729919 6.99494606,19.0729915 C5.07935089,19.0671079 3.30675473,18.2983091 2.01272986,17.0582267 C0.731019627,15.8299455 -0.0810787803,14.1396769 -0.0994578098,12.2708429 C-0.117549006,10.4376454 0.316218786,9.20654114 1.56443765,7.07209233 C2.00357574,6.32864105 2.47256347,5.60318134 2.9700942,4.8978333 C3.64117161,3.93903398 4.34689902,3.00507942 5.08622385,2.09738391 L5.64700054,1.42155796 L7.00791096,-0.152856676 Z M6.90071905,2.93529985 L6.46916953,3.46065896 L5.97459664,4.08372481 C5.48534499,4.71110151 5.01213431,5.3513106 4.55565971,6.00345031 C4.08770249,6.6667846 3.64687859,7.34840627 3.2340503,8.04695592 C2.15519294,9.89149969 1.82004807,10.8253825 1.83374517,12.250997 C1.8470196,13.5846379 2.44058636,14.8004522 3.37497697,15.6858929 C4.31689345,16.5784651 5.60536858,17.1357711 6.99789427,17.1400394 C8.41034566,17.1400389 9.70860478,16.5704317 10.6539413,15.6542276 C11.5944721,14.7426813 12.185805,13.4877479 12.191461,12.1088981 C12.1971739,10.8032031 11.9703897,10.1250745 10.7813051,8.0563056 C10.3687349,7.35840164 9.92752827,6.67639074 9.45937605,6.01299075 C8.86367609,5.15677095 8.2371678,4.32321272 6.90071905,2.93529985 L6.90071905,2.93529985 Z M7.18186242,10.8137003 C7.93078263,11.2244983 8.68916631,11.1115472 9.30276426,11.024365 C9.78865367,10.9553281 10.1872258,10.9118617 10.4461195,11.0832298 C10.6542954,11.2210266 10.7894397,11.4930438 10.7894389,12.031525 C10.7935874,13.0456948 10.3778281,13.9634074 9.7013928,14.6274633 C9.02599518,15.2905005 8.09061266,15.7006353 7.05421028,15.7006353 C6.02267974,15.7006353 5.08966578,15.2909185 4.41313301,14.6283419 C3.73523027,13.9644236 3.3148006,13.046653 3.31033972,12.0319341 C3.31033972,11.4834752 3.42526458,11.0423051 3.62187923,10.7077526 C3.8379482,10.3400972 4.15269684,10.0988339 4.52851615,9.98389069 C5.26586266,9.75837537 6.25035237,10.0245085 7.18186242,10.8137003 Z" id="形状"></path>
                        </g>
                    </g>
                </g>
            </g>
        </g>
    </g>
</svg>