<?xml version="1.0" encoding="UTF-8"?>
<svg width="64px" height="64px" viewBox="0 0 64 64" version="1.1" xmlns="http://www.w3.org/2000/svg" xmlns:xlink="http://www.w3.org/1999/xlink">
    <defs>
        <radialGradient cx="31.1184364%" cy="69.8916371%" fx="31.1184364%" fy="69.8916371%" r="98.1300705%" id="radialGradient-1">
            <stop stop-color="#9A9EE4" offset="0%"></stop>
            <stop stop-color="#898DE4" offset="64.8753806%"></stop>
            <stop stop-color="#6165C5" offset="100%"></stop>
        </radialGradient>
        <linearGradient x1="211.525799%" y1="91.0323841%" x2="9.82120738%" y2="50%" id="linearGradient-2">
            <stop stop-color="#FFFFFF" offset="0%"></stop>
            <stop stop-color="#FFFFFF" stop-opacity="0" offset="100%"></stop>
        </linearGradient>
    </defs>
    <g stroke="none" stroke-width="1" fill="none" fill-rule="evenodd">
        <g transform="translate(-658.000000, -70.000000)">
            <g transform="translate(658.000000, 70.000000)">
                <rect fill="#D8D8D8" opacity="0" x="0" y="0" width="64" height="64"></rect>
                <path d="M4.276,18.586 C15.9948521,18.586 26.5298461,23.2602422 34.1348019,30.8651981 C41.7397578,38.4701539 46.414,49.0051479 46.414,60.724 C46.414,61.5935385 46.1554393,62.3081646 45.6638019,62.7998019 C45.1721646,63.2914393 44.4575385,63.55 43.588,63.55 C42.7184615,63.55 42.0038354,63.2914393 41.5121981,62.7998019 C41.0205607,62.3081646 40.762,61.5935385 40.762,60.724 C40.762,50.6776902 36.6427937,41.5817472 30.0457201,34.9846735 C23.4065919,28.3455453 14.2583128,24.238 4.276,24.238 C3.40646154,24.238 2.69183536,23.9794393 2.20019805,23.4878019 C1.70856075,22.9961646 1.45,22.2815385 1.45,21.412 C1.45,20.5424615 1.70856075,19.8278354 2.20019805,19.3361981 C2.69183536,18.8445607 3.40646154,18.586 4.276,18.586 Z" stroke="url(#linearGradient-2)" stroke-width="0.9" fill="url(#radialGradient-1)" fill-rule="nonzero"></path>
                <path d="M4.276,1.45 C20.5500171,1.45 35.3826304,8.09224172 46.1398252,18.8040475 C56.8735778,29.49251 63.55,44.2333743 63.55,60.472 C63.55,61.3415385 63.2914393,62.0561646 62.7998019,62.5478019 C62.3081646,63.0394393 61.5935385,63.298 60.724,63.298 C59.8544615,63.298 59.1398354,63.0394393 58.6481981,62.5478019 C58.1565607,62.0561646 57.898,61.3415385 57.898,60.472 C57.898,45.8443025 51.8511845,32.4892516 42.113183,22.7974018 C32.3949364,13.1252133 19.0010875,7.102 4.276,7.102 C3.40646154,7.102 2.69183536,6.84343925 2.20019805,6.35180195 C1.70856075,5.86016464 1.45,5.14553846 1.45,4.276 C1.45,3.40646154 1.70856075,2.69183536 2.20019805,2.20019805 C2.69183536,1.70856075 3.40646154,1.45 4.276,1.45 Z "  stroke="url(#linearGradient-2)" stroke-width="0.9" fill="url(#radialGradient-1)" fill-rule="nonzero"></path>
                <path d="M4.276,35.722 C11.1746436,35.722 17.3378984,38.4805816 21.7884011,42.9310844 C26.2793077,47.421991 29.026,53.6349526 29.026,60.472 C29.026,61.3415385 28.7674393,62.0561646 28.2758019,62.5478019 C27.7841646,63.0394393 27.0695385,63.298 26.2,63.298 C25.3304615,63.298 24.6158354,63.0394393 24.1241981,62.5478019 C23.6325607,62.0561646 23.374,61.3415385 23.374,60.472 C23.374,55.2478385 21.2588318,50.4202836 17.7645055,46.9259573 C14.3539928,43.5154446 9.63002865,41.374 4.276,41.374 C3.40646154,41.374 2.69183536,41.1154393 2.20019805,40.6238019 C1.70856075,40.1321646 1.45,39.4175385 1.45,38.548 C1.45,37.6784615 1.70856075,36.9638354 2.20019805,36.4721981 C2.69183536,35.9805607 3.40646154,35.722 4.276,35.722 Z" stroke="url(#linearGradient-2)" stroke-width="0.9" fill="url(#radialGradient-1)" fill-rule="nonzero"></path>
            </g>
        </g>
    </g>
</svg>