<?xml version="1.0" encoding="UTF-8"?>
<svg width="60px" height="62px" viewBox="0 0 60 62" version="1.1" xmlns="http://www.w3.org/2000/svg" xmlns:xlink="http://www.w3.org/1999/xlink">
    <title>全开</title>
    <g id="页面-1" stroke="none" stroke-width="1" fill="none" fill-rule="evenodd">
        <g id="设备卡片状态" transform="translate(-1365.000000, -963.000000)">
            <g id="编组-13备份-19" transform="translate(1131.000000, 924.000000)">
                <g id="编组-61" transform="translate(160.000000, 38.500000)">
                    <g id="编组-2" transform="translate(74.000000, 0.500000)">
                        <g id="全开" transform="translate(0.000000, 0.500000)">
                            <rect id="矩形" x="0" y="0.5" width="60" height="60"></rect>
                            <g id="编组-64" transform="translate(10.000000, 17.000000)" fill="#FFFFFF">
                                <g id="Icons/Top-Bar/Add备份-2" transform="translate(14.000000, 13.500000) rotate(-315.000000) translate(-14.000000, -13.500000) translate(5.000000, 4.000000)">
                                    <path d="M1.3073491,0.611601588 C2.00113416,0.611601588 2.56355809,1.17683126 2.56355809,1.87640992 L2.56314011,15.6986016 L16.3863318,15.6991836 C17.0412077,15.6991836 17.5798392,16.1892503 17.64461,16.8261554 L17.6511401,16.9553926 C17.6511401,17.6491777 17.0859104,18.2116016 16.3863318,18.2116016 L1.32902261,18.2116016 C0.934732715,18.2116016 0.582581941,18.0339503 0.350622822,17.7535599 C0.163684193,17.5327222 0.0511401095,17.2466626 0.0511401095,16.9337191 L0.0511401095,1.87640992 C0.0511401095,1.22153396 0.541206791,0.682902477 1.17811192,0.618131651 L1.3073491,0.611601588 Z" id="形状结合"></path>
                                </g>
                                <g id="Icons/Top-Bar/Add备份-2" transform="translate(26.727922, 13.853553) scale(-1, 1) rotate(-315.000000) translate(-26.727922, -13.853553) translate(17.727922, 4.353553)">
                                    <path d="M1.3073491,0.611601588 C2.00113416,0.611601588 2.56355809,1.17683126 2.56355809,1.87640992 L2.56314011,15.6986016 L16.3863318,15.6991836 C17.0412077,15.6991836 17.5798392,16.1892503 17.64461,16.8261554 L17.6511401,16.9553926 C17.6511401,17.6491777 17.0859104,18.2116016 16.3863318,18.2116016 L1.32902261,18.2116016 C0.934732715,18.2116016 0.582581941,18.0339503 0.350622822,17.7535599 C0.163684193,17.5327222 0.0511401095,17.2466626 0.0511401095,16.9337191 L0.0511401095,1.87640992 C0.0511401095,1.22153396 0.541206791,0.682902477 1.17811192,0.618131651 L1.3073491,0.611601588 Z" id="形状结合"></path>
                                </g>
                            </g>
                        </g>
                    </g>
                </g>
            </g>
        </g>
    </g>
</svg>